# MagicaVoxel @ Ephtracy

# group
g BigLogSprout

# material
mtllib BigLogSprout.mtl
usemtl palette

# normals
vn -1 0 0
vn 1 0 0
vn 0 0 1
vn 0 0 -1
vn 0 -1 0
vn 0 1 0

# texcoords
vt 0.0332031 0.5
vt 0.0371094 0.5
vt 0.537109 0.5
vt 0.654297 0.5

# verts
v -10 4 8
v -10 4 -8
v -10 5 8
v -10 5 -8
v -10 7 14
v -10 7 -11
v -10 8 14
v -10 8 -11
v -10 10 -9
v -10 10 -18
v -10 11 -9
v -10 11 -18
v -10 13 14
v -10 13 -7
v -10 14 14
v -10 14 -7
v -9 3 17
v -9 3 -19
v -9 4 8
v -9 4 -8
v -9 5 8
v -9 5 -8
v -9 7 14
v -9 7 -11
v -9 8 14
v -9 8 -11
v -9 10 -9
v -9 10 -18
v -9 11 -9
v -9 11 -18
v -9 13 14
v -9 13 -7
v -9 14 14
v -9 14 -7
v -9 15 17
v -9 15 -19
v -8 2 17
v -8 2 -19
v -8 3 17
v -8 3 -19
v -8 15 17
v -8 15 -19
v -8 16 17
v -8 16 -19
v -7 1 17
v -7 1 -19
v -7 2 17
v -7 2 -19
v -7 16 17
v -7 16 -19
v -7 17 17
v -7 17 -19
v -6 0 17
v -6 0 -19
v -6 1 17
v -6 1 -19
v -6 17 17
v -6 17 -19
v -6 18 17
v -6 18 -19
v -4 18 14
v -4 18 -16
v -4 19 14
v -4 19 -16
v 1 18 15
v 1 18 -12
v 1 19 15
v 1 19 9
v 1 19 5
v 1 19 -12
v 1 20 9
v 1 20 5
v 2 20 9
v 2 20 5
v 2 21 9
v 2 21 5
v 3 21 8
v 3 21 5
v 3 22 8
v 3 22 5
v 4 18 -5
v 4 18 -17
v 4 19 -5
v 4 19 -17
v 4 22 7
v 4 22 5
v 4 25 7
v 4 25 5
v 5 2 16
v 5 2 11
v 5 2 10
v 5 2 8
v 5 2 7
v 5 2 6
v 5 2 5
v 5 2 2
v 5 2 1
v 5 2 -2
v 5 2 -3
v 5 2 -11
v 5 2 -12
v 5 2 -17
v 5 3 16
v 5 3 11
v 5 3 10
v 5 3 8
v 5 3 7
v 5 3 6
v 5 3 5
v 5 3 2
v 5 3 1
v 5 3 -2
v 5 3 -3
v 5 3 -11
v 5 3 -12
v 5 3 -17
v 5 24 8
v 5 24 7
v 5 25 8
v 5 25 7
v 6 25 7
v 6 25 6
v 6 26 7
v 6 26 6
v -3 18 14
v -3 18 -16
v -3 19 14
v -3 19 -16
v 2 18 15
v 2 18 9
v 2 18 5
v 2 18 -12
v 2 19 15
v 2 19 9
v 2 19 5
v 2 19 -12
v 4 2 16
v 4 2 11
v 4 2 10
v 4 2 6
v 4 2 5
v 4 2 -2
v 4 2 -3
v 4 2 -17
v 4 3 16
v 4 3 11
v 4 3 10
v 4 3 6
v 4 3 5
v 4 3 -2
v 4 3 -3
v 4 3 -17
v 5 18 9
v 5 18 5
v 5 18 -5
v 5 18 -17
v 5 19 -5
v 5 19 -17
v 5 20 9
v 5 20 5
v 6 0 17
v 6 0 -19
v 6 1 17
v 6 1 -19
v 6 17 17
v 6 17 -19
v 6 18 17
v 6 18 -19
v 6 20 9
v 6 20 5
v 6 21 9
v 6 21 8
v 6 22 8
v 6 22 7
v 6 24 8
v 6 24 7
v 6 24 6
v 6 25 8
v 6 25 7
v 6 25 6
v 6 25 5
v 7 1 17
v 7 1 -19
v 7 2 17
v 7 2 -19
v 7 16 17
v 7 16 -19
v 7 17 17
v 7 17 -19
v 7 24 7
v 7 24 6
v 7 26 7
v 7 26 6
v 8 2 17
v 8 2 -19
v 8 3 17
v 8 3 -19
v 8 15 17
v 8 15 -19
v 8 16 17
v 8 16 -19
v 9 3 17
v 9 3 -19
v 9 6 15
v 9 6 -1
v 9 7 15
v 9 7 -1
v 9 9 -3
v 9 9 -13
v 9 10 -3
v 9 10 -13
v 9 12 13
v 9 12 -14
v 9 13 13
v 9 13 -14
v 9 15 17
v 9 15 -19
v 10 6 15
v 10 6 -1
v 10 7 15
v 10 7 -1
v 10 9 -3
v 10 9 -13
v 10 10 -3
v 10 10 -13
v 10 12 13
v 10 12 -14
v 10 13 13
v 10 13 -14
v -9 3 17
v -9 15 17
v -8 2 17
v -8 3 17
v -8 15 17
v -8 16 17
v -7 1 17
v -7 2 17
v -7 3 17
v -7 15 17
v -7 16 17
v -7 17 17
v -6 0 17
v -6 1 17
v -6 2 17
v -6 3 17
v -6 15 17
v -6 16 17
v -6 17 17
v -6 18 17
v -5 5 17
v -5 13 17
v -4 4 17
v -4 5 17
v -4 13 17
v -4 14 17
v -3 7 17
v -3 11 17
v -2 6 17
v -2 7 17
v -2 11 17
v -2 12 17
v -1 8 17
v -1 10 17
v 1 8 17
v 1 10 17
v 2 6 17
v 2 7 17
v 2 11 17
v 2 12 17
v 3 7 17
v 3 11 17
v 4 4 17
v 4 5 17
v 4 13 17
v 4 14 17
v 5 5 17
v 5 13 17
v 6 0 17
v 6 1 17
v 6 2 17
v 6 3 17
v 6 15 17
v 6 16 17
v 6 17 17
v 6 18 17
v 7 1 17
v 7 2 17
v 7 3 17
v 7 15 17
v 7 16 17
v 7 17 17
v 8 2 17
v 8 3 17
v 8 15 17
v 8 16 17
v 9 3 17
v 9 15 17
v 1 18 15
v 1 19 15
v 2 18 15
v 2 19 15
v 9 6 15
v 9 7 15
v 10 6 15
v 10 7 15
v -10 7 14
v -10 8 14
v -10 13 14
v -10 14 14
v -9 7 14
v -9 8 14
v -9 13 14
v -9 14 14
v -4 18 14
v -4 19 14
v -3 18 14
v -3 19 14
v 9 12 13
v 9 13 13
v 10 12 13
v 10 13 13
v 4 2 11
v 4 3 11
v 5 2 11
v 5 3 11
v 1 19 9
v 1 20 9
v 2 18 9
v 2 19 9
v 2 20 9
v 2 21 9
v 5 18 9
v 5 20 9
v 6 20 9
v 6 21 9
v -10 4 8
v -10 5 8
v -9 4 8
v -9 5 8
v 3 21 8
v 3 22 8
v 5 24 8
v 5 25 8
v 6 21 8
v 6 22 8
v 6 24 8
v 6 25 8
v 4 22 7
v 4 25 7
v 5 24 7
v 5 25 7
v 6 22 7
v 6 24 7
v 6 25 7
v 6 26 7
v 7 24 7
v 7 26 7
v 4 2 6
v 4 3 6
v 5 2 6
v 5 3 6
v 4 2 -2
v 4 3 -2
v 5 2 -2
v 5 3 -2
v 9 9 -3
v 9 10 -3
v 10 9 -3
v 10 10 -3
v 4 18 -5
v 4 19 -5
v 5 18 -5
v 5 19 -5
v -10 10 -9
v -10 11 -9
v -9 10 -9
v -9 11 -9
v 4 2 -17
v 4 3 -17
v 5 2 -17
v 5 3 -17
v 4 2 16
v 4 3 16
v 5 2 16
v 5 3 16
v 4 2 10
v 4 3 10
v 5 2 10
v 5 3 10
v 6 24 6
v 6 25 6
v 6 26 6
v 7 24 6
v 7 26 6
v 1 19 5
v 1 20 5
v 2 18 5
v 2 19 5
v 2 20 5
v 2 21 5
v 3 21 5
v 3 22 5
v 4 2 5
v 4 3 5
v 4 22 5
v 4 25 5
v 5 2 5
v 5 3 5
v 5 18 5
v 5 20 5
v 6 20 5
v 6 25 5
v 9 6 -1
v 9 7 -1
v 10 6 -1
v 10 7 -1
v 4 2 -3
v 4 3 -3
v 5 2 -3
v 5 3 -3
v -10 13 -7
v -10 14 -7
v -9 13 -7
v -9 14 -7
v -10 4 -8
v -10 5 -8
v -9 4 -8
v -9 5 -8
v -10 7 -11
v -10 8 -11
v -9 7 -11
v -9 8 -11
v 1 18 -12
v 1 19 -12
v 2 18 -12
v 2 19 -12
v 9 9 -13
v 9 10 -13
v 10 9 -13
v 10 10 -13
v 9 12 -14
v 9 13 -14
v 10 12 -14
v 10 13 -14
v -4 18 -16
v -4 19 -16
v -3 18 -16
v -3 19 -16
v 4 18 -17
v 4 19 -17
v 5 18 -17
v 5 19 -17
v -10 10 -18
v -10 11 -18
v -9 10 -18
v -9 11 -18
v -9 3 -19
v -9 15 -19
v -8 2 -19
v -8 3 -19
v -8 15 -19
v -8 16 -19
v -7 1 -19
v -7 2 -19
v -7 3 -19
v -7 15 -19
v -7 16 -19
v -7 17 -19
v -6 0 -19
v -6 1 -19
v -6 2 -19
v -6 3 -19
v -6 15 -19
v -6 16 -19
v -6 17 -19
v -6 18 -19
v -5 5 -19
v -5 13 -19
v -4 4 -19
v -4 5 -19
v -4 13 -19
v -4 14 -19
v -3 7 -19
v -3 11 -19
v -2 6 -19
v -2 7 -19
v -2 11 -19
v -2 12 -19
v -1 8 -19
v -1 10 -19
v 1 8 -19
v 1 10 -19
v 2 6 -19
v 2 7 -19
v 2 11 -19
v 2 12 -19
v 3 7 -19
v 3 11 -19
v 4 4 -19
v 4 5 -19
v 4 13 -19
v 4 14 -19
v 5 5 -19
v 5 13 -19
v 6 0 -19
v 6 1 -19
v 6 2 -19
v 6 3 -19
v 6 15 -19
v 6 16 -19
v 6 17 -19
v 6 18 -19
v 7 1 -19
v 7 2 -19
v 7 3 -19
v 7 15 -19
v 7 16 -19
v 7 17 -19
v 8 2 -19
v 8 3 -19
v 8 15 -19
v 8 16 -19
v 9 3 -19
v 9 15 -19
v -6 0 17
v 6 0 17
v -6 0 -19
v 6 0 -19
v -7 1 17
v -6 1 17
v 6 1 17
v 7 1 17
v -7 1 -19
v -6 1 -19
v 6 1 -19
v 7 1 -19
v -8 2 17
v -7 2 17
v 7 2 17
v 8 2 17
v -8 2 -19
v -7 2 -19
v 7 2 -19
v 8 2 -19
v -9 3 17
v -8 3 17
v 8 3 17
v 9 3 17
v 4 3 16
v 5 3 16
v 4 3 11
v 5 3 11
v 4 3 10
v 5 3 10
v 5 3 8
v 5 3 7
v 4 3 6
v 5 3 6
v 4 3 5
v 5 3 5
v 5 3 2
v 5 3 1
v 4 3 -2
v 5 3 -2
v 4 3 -3
v 5 3 -3
v 5 3 -11
v 5 3 -12
v 4 3 -17
v 5 3 -17
v -9 3 -19
v -8 3 -19
v 8 3 -19
v 9 3 -19
v -10 4 8
v -9 4 8
v -10 4 -8
v -9 4 -8
v 9 6 15
v 10 6 15
v 9 6 -1
v 10 6 -1
v -10 7 14
v -9 7 14
v -10 7 -11
v -9 7 -11
v 9 9 -3
v 10 9 -3
v 9 9 -13
v 10 9 -13
v -10 10 -9
v -9 10 -9
v -10 10 -18
v -9 10 -18
v 9 12 13
v 10 12 13
v 9 12 -14
v 10 12 -14
v -10 13 14
v -9 13 14
v -10 13 -7
v -9 13 -7
v 5 20 9
v 6 20 9
v 5 20 5
v 6 20 5
v 5 24 8
v 6 24 8
v 5 24 7
v 6 24 7
v 7 24 7
v 6 24 6
v 7 24 6
v 4 2 16
v 5 2 16
v 4 2 11
v 5 2 11
v 4 2 10
v 5 2 10
v 5 2 8
v 5 2 7
v 4 2 6
v 5 2 6
v 4 2 5
v 5 2 5
v 5 2 2
v 5 2 1
v 4 2 -2
v 5 2 -2
v 4 2 -3
v 5 2 -3
v 5 2 -11
v 5 2 -12
v 4 2 -17
v 5 2 -17
v -10 5 8
v -9 5 8
v -10 5 -8
v -9 5 -8
v 9 7 15
v 10 7 15
v 9 7 -1
v 10 7 -1
v -10 8 14
v -9 8 14
v -10 8 -11
v -9 8 -11
v 9 10 -3
v 10 10 -3
v 9 10 -13
v 10 10 -13
v -10 11 -9
v -9 11 -9
v -10 11 -18
v -9 11 -18
v 9 13 13
v 10 13 13
v 9 13 -14
v 10 13 -14
v -10 14 14
v -9 14 14
v -10 14 -7
v -9 14 -7
v -9 15 17
v -8 15 17
v 8 15 17
v 9 15 17
v -9 15 -19
v -8 15 -19
v 8 15 -19
v 9 15 -19
v -8 16 17
v -7 16 17
v 7 16 17
v 8 16 17
v -8 16 -19
v -7 16 -19
v 7 16 -19
v 8 16 -19
v -7 17 17
v -6 17 17
v 6 17 17
v 7 17 17
v -7 17 -19
v -6 17 -19
v 6 17 -19
v 7 17 -19
v -6 18 17
v 6 18 17
v 1 18 15
v 2 18 15
v -4 18 14
v -3 18 14
v 2 18 9
v 5 18 9
v 2 18 5
v 5 18 5
v 4 18 -5
v 5 18 -5
v 1 18 -12
v 2 18 -12
v -4 18 -16
v -3 18 -16
v 4 18 -17
v 5 18 -17
v -6 18 -19
v 6 18 -19
v 1 19 15
v 2 19 15
v -4 19 14
v -3 19 14
v 1 19 9
v 2 19 9
v 1 19 5
v 2 19 5
v 4 19 -5
v 5 19 -5
v 1 19 -12
v 2 19 -12
v -4 19 -16
v -3 19 -16
v 4 19 -17
v 5 19 -17
v 1 20 9
v 2 20 9
v 1 20 5
v 2 20 5
v 2 21 9
v 6 21 9
v 3 21 8
v 6 21 8
v 2 21 5
v 3 21 5
v 3 22 8
v 6 22 8
v 4 22 7
v 6 22 7
v 3 22 5
v 4 22 5
v 5 25 8
v 6 25 8
v 4 25 7
v 5 25 7
v 6 25 7
v 6 25 6
v 4 25 5
v 6 25 5
v 6 26 7
v 7 26 7
v 6 26 6
v 7 26 6

# faces
f 3/3/1 2/3/1 1/3/1
f 4/3/1 2/3/1 3/3/1
f 7/3/1 6/3/1 5/3/1
f 8/3/1 6/3/1 7/3/1
f 11/3/1 10/3/1 9/3/1
f 12/3/1 10/3/1 11/3/1
f 15/3/1 14/3/1 13/3/1
f 16/3/1 14/3/1 15/3/1
f 19/3/1 18/3/1 17/3/1
f 20/3/1 18/3/1 19/3/1
f 21/3/1 19/3/1 17/3/1
f 22/3/1 18/3/1 20/3/1
f 23/3/1 21/3/1 17/3/1
f 23/3/1 22/3/1 21/3/1
f 24/3/1 18/3/1 22/3/1
f 24/3/1 22/3/1 23/3/1
f 25/3/1 23/3/1 17/3/1
f 26/3/1 18/3/1 24/3/1
f 27/3/1 26/3/1 25/3/1
f 28/3/1 18/3/1 26/3/1
f 28/3/1 26/3/1 27/3/1
f 29/3/1 27/3/1 25/3/1
f 30/3/1 18/3/1 28/3/1
f 31/3/1 25/3/1 17/3/1
f 31/3/1 30/3/1 29/3/1
f 31/3/1 29/3/1 25/3/1
f 32/3/1 30/3/1 31/3/1
f 33/3/1 31/3/1 17/3/1
f 34/3/1 30/3/1 32/3/1
f 35/3/1 33/3/1 17/3/1
f 35/3/1 34/3/1 33/3/1
f 36/3/1 18/3/1 30/3/1
f 36/3/1 34/3/1 35/3/1
f 36/3/1 30/3/1 34/3/1
f 39/3/1 38/3/1 37/3/1
f 40/3/1 38/3/1 39/3/1
f 43/3/1 42/3/1 41/3/1
f 44/3/1 42/3/1 43/3/1
f 47/3/1 46/3/1 45/3/1
f 48/3/1 46/3/1 47/3/1
f 51/3/1 50/3/1 49/3/1
f 52/3/1 50/3/1 51/3/1
f 55/3/1 54/3/1 53/3/1
f 56/3/1 54/3/1 55/3/1
f 59/3/1 58/3/1 57/3/1
f 60/3/1 58/3/1 59/3/1
f 63/3/1 62/3/1 61/3/1
f 64/3/1 62/3/1 63/3/1
f 67/3/1 66/3/1 65/3/1
f 68/3/1 66/3/1 67/3/1
f 69/3/1 66/3/1 68/3/1
f 70/3/1 66/3/1 69/3/1
f 71/3/1 69/3/1 68/3/1
f 72/3/1 69/3/1 71/3/1
f 75/3/1 74/3/1 73/3/1
f 76/3/1 74/3/1 75/3/1
f 79/3/1 78/3/1 77/3/1
f 80/3/1 78/3/1 79/3/1
f 83/3/1 82/3/1 81/3/1
f 84/3/1 82/3/1 83/3/1
f 87/3/1 86/3/1 85/3/1
f 88/3/1 86/3/1 87/3/1
f 103/1/1 90/1/1 89/1/1
f 104/1/1 90/1/1 103/1/1
f 105/1/1 92/1/1 91/1/1
f 106/2/1 93/2/1 92/2/1
f 106/1/1 92/1/1 105/1/1
f 107/1/1 94/1/1 93/1/1
f 107/2/1 93/2/1 106/2/1
f 108/1/1 94/1/1 107/1/1
f 109/1/1 96/1/1 95/1/1
f 110/2/1 97/2/1 96/2/1
f 110/1/1 96/1/1 109/1/1
f 111/1/1 98/1/1 97/1/1
f 111/2/1 97/2/1 110/2/1
f 112/1/1 98/1/1 111/1/1
f 113/1/1 100/1/1 99/1/1
f 114/2/1 101/2/1 100/2/1
f 114/1/1 100/1/1 113/1/1
f 115/1/1 102/1/1 101/1/1
f 115/2/1 101/2/1 114/2/1
f 116/1/1 102/1/1 115/1/1
f 119/4/1 118/4/1 117/4/1
f 120/4/1 118/4/1 119/4/1
f 123/4/1 122/4/1 121/4/1
f 124/4/1 122/4/1 123/4/1
f 125/3/2 126/3/2 127/3/2
f 127/3/2 126/3/2 128/3/2
f 129/3/2 130/3/2 133/3/2
f 133/3/2 130/3/2 134/3/2
f 131/3/2 132/3/2 135/3/2
f 135/3/2 132/3/2 136/3/2
f 137/1/2 138/1/2 145/1/2
f 145/1/2 138/1/2 146/1/2
f 139/1/2 140/1/2 147/1/2
f 147/1/2 140/1/2 148/1/2
f 141/1/2 142/1/2 149/1/2
f 149/1/2 142/1/2 150/1/2
f 143/1/2 144/1/2 151/1/2
f 151/1/2 144/1/2 152/1/2
f 155/3/2 156/3/2 157/3/2
f 157/3/2 156/3/2 158/3/2
f 153/3/2 154/3/2 159/3/2
f 159/3/2 154/3/2 160/3/2
f 161/3/2 162/3/2 163/3/2
f 163/3/2 162/3/2 164/3/2
f 165/3/2 166/3/2 167/3/2
f 167/3/2 166/3/2 168/3/2
f 169/3/2 170/3/2 171/3/2
f 171/3/2 170/3/2 172/3/2
f 172/3/2 170/3/2 173/3/2
f 173/3/2 170/3/2 174/3/2
f 174/3/2 170/3/2 176/3/2
f 176/3/2 170/3/2 177/3/2
f 175/4/2 176/4/2 178/4/2
f 178/4/2 176/4/2 179/4/2
f 177/3/2 170/3/2 180/3/2
f 180/3/2 170/3/2 181/3/2
f 182/3/2 183/3/2 184/3/2
f 184/3/2 183/3/2 185/3/2
f 186/3/2 187/3/2 188/3/2
f 188/3/2 187/3/2 189/3/2
f 190/4/2 191/4/2 192/4/2
f 192/4/2 191/4/2 193/4/2
f 194/3/2 195/3/2 196/3/2
f 196/3/2 195/3/2 197/3/2
f 198/3/2 199/3/2 200/3/2
f 200/3/2 199/3/2 201/3/2
f 202/3/2 203/3/2 204/3/2
f 204/3/2 203/3/2 205/3/2
f 202/3/2 204/3/2 206/3/2
f 205/3/2 203/3/2 207/3/2
f 207/3/2 203/3/2 208/3/2
f 206/3/2 207/3/2 208/3/2
f 208/3/2 203/3/2 209/3/2
f 206/3/2 208/3/2 210/3/2
f 209/3/2 203/3/2 211/3/2
f 206/3/2 210/3/2 212/3/2
f 210/3/2 211/3/2 212/3/2
f 211/3/2 203/3/2 213/3/2
f 212/3/2 211/3/2 213/3/2
f 206/3/2 212/3/2 214/3/2
f 213/3/2 203/3/2 215/3/2
f 202/3/2 206/3/2 216/3/2
f 214/3/2 215/3/2 216/3/2
f 206/3/2 214/3/2 216/3/2
f 215/3/2 203/3/2 217/3/2
f 216/3/2 215/3/2 217/3/2
f 218/3/2 219/3/2 220/3/2
f 220/3/2 219/3/2 221/3/2
f 222/3/2 223/3/2 224/3/2
f 224/3/2 223/3/2 225/3/2
f 226/3/2 227/3/2 228/3/2
f 228/3/2 227/3/2 229/3/2
f 233/3/3 231/3/3 230/3/3
f 234/3/3 231/3/3 233/3/3
f 237/3/3 233/3/3 232/3/3
f 238/1/3 234/1/3 233/1/3
f 238/3/3 233/3/3 237/3/3
f 239/3/3 235/3/3 234/3/3
f 239/1/3 234/1/3 238/1/3
f 240/3/3 235/3/3 239/3/3
f 243/3/3 237/3/3 236/3/3
f 244/1/3 238/1/3 237/1/3
f 244/3/3 237/3/3 243/3/3
f 245/2/3 239/2/3 238/2/3
f 245/1/3 238/1/3 244/1/3
f 246/1/3 240/1/3 239/1/3
f 246/2/3 239/2/3 245/2/3
f 247/3/3 241/3/3 240/3/3
f 247/1/3 240/1/3 246/1/3
f 248/3/3 241/3/3 247/3/3
f 250/1/3 246/1/3 245/1/3
f 251/1/3 246/1/3 250/1/3
f 252/1/3 250/1/3 245/1/3
f 253/2/3 251/2/3 250/2/3
f 253/1/3 250/1/3 252/1/3
f 254/1/3 246/1/3 251/1/3
f 254/2/3 251/2/3 253/2/3
f 255/1/3 246/1/3 254/1/3
f 256/1/3 254/1/3 253/1/3
f 257/1/3 254/1/3 256/1/3
f 258/1/3 256/1/3 253/1/3
f 259/2/3 257/2/3 256/2/3
f 259/1/3 256/1/3 258/1/3
f 260/1/3 254/1/3 257/1/3
f 260/2/3 257/2/3 259/2/3
f 261/1/3 254/1/3 260/1/3
f 262/1/3 260/1/3 259/1/3
f 263/1/3 260/1/3 262/1/3
f 264/1/3 262/1/3 259/1/3
f 264/2/3 263/2/3 262/2/3
f 265/1/3 260/1/3 263/1/3
f 265/2/3 263/2/3 264/2/3
f 266/2/3 259/2/3 258/2/3
f 266/1/3 258/1/3 253/1/3
f 267/1/3 265/1/3 264/1/3
f 267/2/3 259/2/3 266/2/3
f 267/1/3 264/1/3 259/1/3
f 268/1/3 260/1/3 265/1/3
f 268/1/3 265/1/3 267/1/3
f 268/2/3 261/2/3 260/2/3
f 269/1/3 254/1/3 261/1/3
f 269/2/3 261/2/3 268/2/3
f 270/1/3 267/1/3 266/1/3
f 270/2/3 268/2/3 267/2/3
f 271/1/3 269/1/3 268/1/3
f 271/2/3 268/2/3 270/2/3
f 272/2/3 253/2/3 252/2/3
f 272/1/3 252/1/3 245/1/3
f 273/1/3 271/1/3 270/1/3
f 273/2/3 253/2/3 272/2/3
f 273/1/3 266/1/3 253/1/3
f 273/1/3 270/1/3 266/1/3
f 274/1/3 269/1/3 271/1/3
f 274/1/3 271/1/3 273/1/3
f 274/2/3 255/2/3 254/2/3
f 274/1/3 254/1/3 269/1/3
f 275/1/3 246/1/3 255/1/3
f 275/2/3 255/2/3 274/2/3
f 276/1/3 273/1/3 272/1/3
f 276/2/3 274/2/3 273/2/3
f 277/1/3 275/1/3 274/1/3
f 277/2/3 274/2/3 276/2/3
f 278/3/3 243/3/3 242/3/3
f 279/1/3 244/1/3 243/1/3
f 279/3/3 243/3/3 278/3/3
f 280/2/3 245/2/3 244/2/3
f 280/1/3 244/1/3 279/1/3
f 281/1/3 272/1/3 245/1/3
f 281/2/3 245/2/3 280/2/3
f 281/1/3 276/1/3 272/1/3
f 281/1/3 277/1/3 276/1/3
f 282/1/3 275/1/3 277/1/3
f 282/1/3 277/1/3 281/1/3
f 282/2/3 247/2/3 246/2/3
f 282/1/3 246/1/3 275/1/3
f 283/1/3 248/1/3 247/1/3
f 283/2/3 247/2/3 282/2/3
f 284/3/3 249/3/3 248/3/3
f 284/1/3 248/1/3 283/1/3
f 285/3/3 249/3/3 284/3/3
f 286/3/3 280/3/3 279/3/3
f 287/1/3 281/1/3 280/1/3
f 287/3/3 280/3/3 286/3/3
f 288/2/3 282/2/3 281/2/3
f 288/1/3 281/1/3 287/1/3
f 289/1/3 283/1/3 282/1/3
f 289/2/3 282/2/3 288/2/3
f 290/3/3 284/3/3 283/3/3
f 290/1/3 283/1/3 289/1/3
f 291/3/3 284/3/3 290/3/3
f 292/3/3 288/3/3 287/3/3
f 293/1/3 289/1/3 288/1/3
f 293/3/3 288/3/3 292/3/3
f 294/3/3 290/3/3 289/3/3
f 294/1/3 289/1/3 293/1/3
f 295/3/3 290/3/3 294/3/3
f 296/3/3 294/3/3 293/3/3
f 297/3/3 294/3/3 296/3/3
f 300/3/3 299/3/3 298/3/3
f 301/3/3 299/3/3 300/3/3
f 304/3/3 303/3/3 302/3/3
f 305/3/3 303/3/3 304/3/3
f 310/3/3 307/3/3 306/3/3
f 311/3/3 307/3/3 310/3/3
f 312/3/3 309/3/3 308/3/3
f 313/3/3 309/3/3 312/3/3
f 316/3/3 315/3/3 314/3/3
f 317/3/3 315/3/3 316/3/3
f 320/3/3 319/3/3 318/3/3
f 321/3/3 319/3/3 320/3/3
f 324/2/3 323/2/3 322/2/3
f 325/2/3 323/2/3 324/2/3
f 329/3/3 327/3/3 326/3/3
f 330/3/3 327/3/3 329/3/3
f 332/3/3 329/3/3 328/3/3
f 332/3/3 331/3/3 330/3/3
f 332/3/3 330/3/3 329/3/3
f 333/3/3 331/3/3 332/3/3
f 334/3/3 331/3/3 333/3/3
f 335/3/3 331/3/3 334/3/3
f 338/3/3 337/3/3 336/3/3
f 339/3/3 337/3/3 338/3/3
f 344/3/3 341/3/3 340/3/3
f 345/3/3 341/3/3 344/3/3
f 346/4/3 343/4/3 342/4/3
f 347/4/3 343/4/3 346/4/3
f 350/3/3 349/3/3 348/3/3
f 351/3/3 349/3/3 350/3/3
f 352/3/3 350/3/3 348/3/3
f 353/3/3 350/3/3 352/3/3
f 356/4/3 354/4/3 353/4/3
f 356/4/3 355/4/3 354/4/3
f 357/4/3 355/4/3 356/4/3
f 360/2/3 359/2/3 358/2/3
f 361/2/3 359/2/3 360/2/3
f 364/2/3 363/2/3 362/2/3
f 365/2/3 363/2/3 364/2/3
f 368/3/3 367/3/3 366/3/3
f 369/3/3 367/3/3 368/3/3
f 372/3/3 371/3/3 370/3/3
f 373/3/3 371/3/3 372/3/3
f 376/3/3 375/3/3 374/3/3
f 377/3/3 375/3/3 376/3/3
f 380/1/3 379/1/3 378/1/3
f 381/1/3 379/1/3 380/1/3
f 382/2/4 383/2/4 384/2/4
f 384/2/4 383/2/4 385/2/4
f 386/2/4 387/2/4 388/2/4
f 388/2/4 387/2/4 389/2/4
f 390/4/4 391/4/4 393/4/4
f 391/4/4 392/4/4 393/4/4
f 393/4/4 392/4/4 394/4/4
f 395/3/4 396/3/4 398/3/4
f 398/3/4 396/3/4 399/3/4
f 397/3/4 398/3/4 401/3/4
f 399/3/4 400/3/4 401/3/4
f 398/3/4 399/3/4 401/3/4
f 401/3/4 402/3/4 405/3/4
f 403/2/4 404/2/4 407/2/4
f 407/2/4 404/2/4 408/2/4
f 397/3/4 401/3/4 409/3/4
f 405/3/4 406/3/4 409/3/4
f 401/3/4 405/3/4 409/3/4
f 409/3/4 406/3/4 410/3/4
f 410/3/4 406/3/4 411/3/4
f 411/3/4 406/3/4 412/3/4
f 413/3/4 414/3/4 415/3/4
f 415/3/4 414/3/4 416/3/4
f 417/2/4 418/2/4 419/2/4
f 419/2/4 418/2/4 420/2/4
f 421/3/4 422/3/4 423/3/4
f 423/3/4 422/3/4 424/3/4
f 425/3/4 426/3/4 427/3/4
f 427/3/4 426/3/4 428/3/4
f 429/3/4 430/3/4 431/3/4
f 431/3/4 430/3/4 432/3/4
f 433/3/4 434/3/4 435/3/4
f 435/3/4 434/3/4 436/3/4
f 437/3/4 438/3/4 439/3/4
f 439/3/4 438/3/4 440/3/4
f 441/3/4 442/3/4 443/3/4
f 443/3/4 442/3/4 444/3/4
f 445/3/4 446/3/4 447/3/4
f 447/3/4 446/3/4 448/3/4
f 449/3/4 450/3/4 451/3/4
f 451/3/4 450/3/4 452/3/4
f 453/3/4 454/3/4 455/3/4
f 455/3/4 454/3/4 456/3/4
f 457/3/4 458/3/4 460/3/4
f 460/3/4 458/3/4 461/3/4
f 459/3/4 460/3/4 464/3/4
f 460/1/4 461/1/4 465/1/4
f 464/3/4 460/3/4 465/3/4
f 461/3/4 462/3/4 466/3/4
f 465/1/4 461/1/4 466/1/4
f 466/3/4 462/3/4 467/3/4
f 463/3/4 464/3/4 470/3/4
f 464/1/4 465/1/4 471/1/4
f 470/3/4 464/3/4 471/3/4
f 465/2/4 466/2/4 472/2/4
f 471/1/4 465/1/4 472/1/4
f 466/1/4 467/1/4 473/1/4
f 472/2/4 466/2/4 473/2/4
f 467/3/4 468/3/4 474/3/4
f 473/1/4 467/1/4 474/1/4
f 474/3/4 468/3/4 475/3/4
f 472/1/4 473/1/4 477/1/4
f 477/1/4 473/1/4 478/1/4
f 472/1/4 477/1/4 479/1/4
f 477/2/4 478/2/4 480/2/4
f 479/1/4 477/1/4 480/1/4
f 478/1/4 473/1/4 481/1/4
f 480/2/4 478/2/4 481/2/4
f 481/1/4 473/1/4 482/1/4
f 480/1/4 481/1/4 483/1/4
f 483/1/4 481/1/4 484/1/4
f 480/1/4 483/1/4 485/1/4
f 483/2/4 484/2/4 486/2/4
f 485/1/4 483/1/4 486/1/4
f 484/1/4 481/1/4 487/1/4
f 486/2/4 484/2/4 487/2/4
f 487/1/4 481/1/4 488/1/4
f 486/1/4 487/1/4 489/1/4
f 489/1/4 487/1/4 490/1/4
f 486/1/4 489/1/4 491/1/4
f 489/2/4 490/2/4 491/2/4
f 490/1/4 487/1/4 492/1/4
f 491/2/4 490/2/4 492/2/4
f 485/2/4 486/2/4 493/2/4
f 480/1/4 485/1/4 493/1/4
f 491/1/4 492/1/4 494/1/4
f 493/2/4 486/2/4 494/2/4
f 486/1/4 491/1/4 494/1/4
f 492/1/4 487/1/4 495/1/4
f 494/1/4 492/1/4 495/1/4
f 487/2/4 488/2/4 495/2/4
f 488/1/4 481/1/4 496/1/4
f 495/2/4 488/2/4 496/2/4
f 493/1/4 494/1/4 497/1/4
f 494/2/4 495/2/4 497/2/4
f 495/1/4 496/1/4 498/1/4
f 497/2/4 495/2/4 498/2/4
f 479/2/4 480/2/4 499/2/4
f 472/1/4 479/1/4 499/1/4
f 497/1/4 498/1/4 500/1/4
f 499/2/4 480/2/4 500/2/4
f 480/1/4 493/1/4 500/1/4
f 493/1/4 497/1/4 500/1/4
f 498/1/4 496/1/4 501/1/4
f 500/1/4 498/1/4 501/1/4
f 481/2/4 482/2/4 501/2/4
f 496/1/4 481/1/4 501/1/4
f 482/1/4 473/1/4 502/1/4
f 501/2/4 482/2/4 502/2/4
f 499/1/4 500/1/4 503/1/4
f 500/2/4 501/2/4 503/2/4
f 501/1/4 502/1/4 504/1/4
f 503/2/4 501/2/4 504/2/4
f 469/3/4 470/3/4 505/3/4
f 470/1/4 471/1/4 506/1/4
f 505/3/4 470/3/4 506/3/4
f 471/2/4 472/2/4 507/2/4
f 506/1/4 471/1/4 507/1/4
f 472/1/4 499/1/4 508/1/4
f 507/2/4 472/2/4 508/2/4
f 499/1/4 503/1/4 508/1/4
f 503/1/4 504/1/4 508/1/4
f 504/1/4 502/1/4 509/1/4
f 508/1/4 504/1/4 509/1/4
f 473/2/4 474/2/4 509/2/4
f 502/1/4 473/1/4 509/1/4
f 474/1/4 475/1/4 510/1/4
f 509/2/4 474/2/4 510/2/4
f 475/3/4 476/3/4 511/3/4
f 510/1/4 475/1/4 511/1/4
f 511/3/4 476/3/4 512/3/4
f 506/3/4 507/3/4 513/3/4
f 507/1/4 508/1/4 514/1/4
f 513/3/4 507/3/4 514/3/4
f 508/2/4 509/2/4 515/2/4
f 514/1/4 508/1/4 515/1/4
f 509/1/4 510/1/4 516/1/4
f 515/2/4 509/2/4 516/2/4
f 510/3/4 511/3/4 517/3/4
f 516/1/4 510/1/4 517/1/4
f 517/3/4 511/3/4 518/3/4
f 514/3/4 515/3/4 519/3/4
f 515/1/4 516/1/4 520/1/4
f 519/3/4 515/3/4 520/3/4
f 516/3/4 517/3/4 521/3/4
f 520/1/4 516/1/4 521/1/4
f 521/3/4 517/3/4 522/3/4
f 520/3/4 521/3/4 523/3/4
f 523/3/4 521/3/4 524/3/4
f 527/3/5 526/3/5 525/3/5
f 528/3/5 526/3/5 527/3/5
f 533/3/5 530/3/5 529/3/5
f 534/3/5 530/3/5 533/3/5
f 535/3/5 532/3/5 531/3/5
f 536/3/5 532/3/5 535/3/5
f 541/3/5 538/3/5 537/3/5
f 542/3/5 538/3/5 541/3/5
f 543/3/5 540/3/5 539/3/5
f 544/3/5 540/3/5 543/3/5
f 551/1/5 550/1/5 549/1/5
f 552/1/5 550/1/5 551/1/5
f 555/1/5 554/1/5 553/1/5
f 556/1/5 555/1/5 553/1/5
f 557/1/5 556/1/5 553/1/5
f 558/1/5 556/1/5 557/1/5
f 561/1/5 560/1/5 559/1/5
f 562/1/5 561/1/5 559/1/5
f 563/1/5 562/1/5 559/1/5
f 564/1/5 562/1/5 563/1/5
f 567/1/5 566/1/5 565/1/5
f 568/1/5 567/1/5 565/1/5
f 569/1/5 568/1/5 565/1/5
f 570/1/5 568/1/5 569/1/5
f 571/3/5 546/3/5 545/3/5
f 572/3/5 546/3/5 571/3/5
f 573/3/5 548/3/5 547/3/5
f 574/3/5 548/3/5 573/3/5
f 577/3/5 576/3/5 575/3/5
f 578/3/5 576/3/5 577/3/5
f 581/3/5 580/3/5 579/3/5
f 582/3/5 580/3/5 581/3/5
f 585/3/5 584/3/5 583/3/5
f 586/3/5 584/3/5 585/3/5
f 589/3/5 588/3/5 587/3/5
f 590/3/5 588/3/5 589/3/5
f 593/3/5 592/3/5 591/3/5
f 594/3/5 592/3/5 593/3/5
f 597/3/5 596/3/5 595/3/5
f 598/3/5 596/3/5 597/3/5
f 601/3/5 600/3/5 599/3/5
f 602/3/5 600/3/5 601/3/5
f 605/3/5 604/3/5 603/3/5
f 606/3/5 604/3/5 605/3/5
f 609/4/5 608/4/5 607/4/5
f 610/4/5 608/4/5 609/4/5
f 612/4/5 611/4/5 610/4/5
f 613/4/5 611/4/5 612/4/5
f 614/1/6 615/1/6 616/1/6
f 616/1/6 615/1/6 617/1/6
f 618/1/6 619/1/6 620/1/6
f 618/1/6 620/1/6 621/1/6
f 618/1/6 621/1/6 622/1/6
f 622/1/6 621/1/6 623/1/6
f 624/1/6 625/1/6 626/1/6
f 624/1/6 626/1/6 627/1/6
f 624/1/6 627/1/6 628/1/6
f 628/1/6 627/1/6 629/1/6
f 630/1/6 631/1/6 632/1/6
f 630/1/6 632/1/6 633/1/6
f 630/1/6 633/1/6 634/1/6
f 634/1/6 633/1/6 635/1/6
f 636/3/6 637/3/6 638/3/6
f 638/3/6 637/3/6 639/3/6
f 640/3/6 641/3/6 642/3/6
f 642/3/6 641/3/6 643/3/6
f 644/3/6 645/3/6 646/3/6
f 646/3/6 645/3/6 647/3/6
f 648/3/6 649/3/6 650/3/6
f 650/3/6 649/3/6 651/3/6
f 652/3/6 653/3/6 654/3/6
f 654/3/6 653/3/6 655/3/6
f 656/3/6 657/3/6 658/3/6
f 658/3/6 657/3/6 659/3/6
f 660/3/6 661/3/6 662/3/6
f 662/3/6 661/3/6 663/3/6
f 664/3/6 665/3/6 668/3/6
f 668/3/6 665/3/6 669/3/6
f 666/3/6 667/3/6 670/3/6
f 670/3/6 667/3/6 671/3/6
f 672/3/6 673/3/6 676/3/6
f 676/3/6 673/3/6 677/3/6
f 674/3/6 675/3/6 678/3/6
f 678/3/6 675/3/6 679/3/6
f 680/3/6 681/3/6 684/3/6
f 684/3/6 681/3/6 685/3/6
f 682/3/6 683/3/6 686/3/6
f 686/3/6 683/3/6 687/3/6
f 688/3/6 689/3/6 690/3/6
f 690/3/6 689/3/6 691/3/6
f 688/3/6 690/3/6 692/3/6
f 692/3/6 690/3/6 693/3/6
f 691/3/6 689/3/6 694/3/6
f 694/3/6 689/3/6 695/3/6
f 695/3/6 689/3/6 697/3/6
f 696/3/6 697/3/6 698/3/6
f 697/3/6 689/3/6 699/3/6
f 698/3/6 697/3/6 699/3/6
f 693/3/6 690/3/6 700/3/6
f 696/3/6 698/3/6 701/3/6
f 688/3/6 692/3/6 702/3/6
f 700/3/6 701/3/6 703/3/6
f 693/3/6 700/3/6 703/3/6
f 701/3/6 698/3/6 704/3/6
f 702/3/6 703/3/6 704/3/6
f 703/3/6 701/3/6 704/3/6
f 699/3/6 689/3/6 705/3/6
f 702/3/6 704/3/6 706/3/6
f 704/3/6 705/3/6 706/3/6
f 688/3/6 702/3/6 706/3/6
f 705/3/6 689/3/6 707/3/6
f 706/3/6 705/3/6 707/3/6
f 708/3/6 709/3/6 712/3/6
f 712/3/6 709/3/6 713/3/6
f 714/3/6 715/3/6 718/3/6
f 718/3/6 715/3/6 719/3/6
f 710/3/6 711/3/6 720/3/6
f 720/3/6 711/3/6 721/3/6
f 716/3/6 717/3/6 722/3/6
f 722/3/6 717/3/6 723/3/6
f 724/3/6 725/3/6 726/3/6
f 726/3/6 725/3/6 727/3/6
f 728/3/6 729/3/6 730/3/6
f 730/3/6 729/3/6 731/3/6
f 728/3/6 730/3/6 732/3/6
f 732/3/6 730/3/6 733/3/6
f 734/3/6 735/3/6 736/3/6
f 736/3/6 735/3/6 737/3/6
f 734/3/6 736/3/6 738/3/6
f 738/3/6 736/3/6 739/3/6
f 740/4/6 741/4/6 743/4/6
f 743/4/6 741/4/6 744/4/6
f 742/3/6 743/3/6 745/3/6
f 743/3/6 744/3/6 745/3/6
f 742/3/6 745/3/6 746/3/6
f 746/3/6 745/3/6 747/3/6
f 748/4/6 749/4/6 750/4/6
f 750/4/6 749/4/6 751/4/6
