# MagicaVoxel @ Ephtracy

# group
g Sword

# material
mtllib Sword.mtl
usemtl palette

# normals
vn -1 0 0
vn 1 0 0
vn 0 0 1
vn 0 0 -1
vn 0 -1 0
vn 0 1 0

# texcoords
vt 0.974609 0.5
vt 0.986328 0.5

# verts
v -3 0 3.5
v -3 0 2.5
v -3 1 3.5
v -3 1 2.5
v -2 0 9.5
v -2 0 7.5
v -2 0 5.5
v -2 0 3.5
v -2 0 2.5
v -2 0 -9.5
v -2 1 9.5
v -2 1 7.5
v -2 1 5.5
v -2 1 3.5
v -2 1 2.5
v -2 1 -9.5
v -2 2 3.5
v -2 2 2.5
v -1 0 7.5
v -1 0 5.5
v -1 0 -9.5
v -1 0 -10.5
v -1 1 9.5
v -1 1 7.5
v -1 1 5.5
v -1 1 4.5
v -1 1 3.5
v -1 1 -9.5
v -1 1 -10.5
v -1 2 9.5
v -1 2 7.5
v -1 2 4.5
v -1 2 3.5
v 0 0 7.5
v 0 0 5.5
v 0 0 -9.5
v 0 0 -10.5
v 0 1 9.5
v 0 1 7.5
v 0 1 5.5
v 0 1 4.5
v 0 1 3.5
v 0 1 -9.5
v 0 1 -10.5
v 0 2 9.5
v 0 2 7.5
v 0 2 4.5
v 0 2 3.5
v 1 0 9.5
v 1 0 7.5
v 1 0 5.5
v 1 0 3.5
v 1 0 2.5
v 1 0 -9.5
v 1 1 9.5
v 1 1 7.5
v 1 1 5.5
v 1 1 3.5
v 1 1 2.5
v 1 1 -9.5
v 1 2 3.5
v 1 2 2.5
v 2 0 3.5
v 2 0 2.5
v 2 1 3.5
v 2 1 2.5
v -2 0 9.5
v -2 1 9.5
v -1 1 9.5
v -1 2 9.5
v 0 1 9.5
v 0 2 9.5
v 1 0 9.5
v 1 1 9.5
v -2 0 5.5
v -2 1 5.5
v -1 0 5.5
v -1 1 5.5
v 0 0 5.5
v 0 1 5.5
v 1 0 5.5
v 1 1 5.5
v -1 1 4.5
v -1 2 4.5
v 0 1 4.5
v 0 2 4.5
v -3 0 3.5
v -3 1 3.5
v -2 0 3.5
v -2 1 3.5
v -2 2 3.5
v -1 1 3.5
v -1 2 3.5
v 0 1 3.5
v 0 2 3.5
v 1 0 3.5
v 1 1 3.5
v 1 2 3.5
v 2 0 3.5
v 2 1 3.5
v -2 0 7.5
v -2 1 7.5
v -1 0 7.5
v -1 1 7.5
v -1 2 7.5
v 0 0 7.5
v 0 1 7.5
v 0 2 7.5
v 1 0 7.5
v 1 1 7.5
v -3 0 2.5
v -3 1 2.5
v -2 0 2.5
v -2 1 2.5
v -2 2 2.5
v 1 0 2.5
v 1 1 2.5
v 1 2 2.5
v 2 0 2.5
v 2 1 2.5
v -2 0 -9.5
v -2 1 -9.5
v -1 0 -9.5
v -1 1 -9.5
v 0 0 -9.5
v 0 1 -9.5
v 1 0 -9.5
v 1 1 -9.5
v -1 0 -10.5
v -1 1 -10.5
v 0 0 -10.5
v 0 1 -10.5
v -2 0 9.5
v 1 0 9.5
v -2 0 7.5
v -1 0 7.5
v 0 0 7.5
v 1 0 7.5
v -2 0 5.5
v -1 0 5.5
v 0 0 5.5
v 1 0 5.5
v -3 0 3.5
v -2 0 3.5
v 1 0 3.5
v 2 0 3.5
v -3 0 2.5
v -2 0 2.5
v 1 0 2.5
v 2 0 2.5
v -2 0 -9.5
v -1 0 -9.5
v 0 0 -9.5
v 1 0 -9.5
v -1 0 -10.5
v 0 0 -10.5
v -2 1 9.5
v -1 1 9.5
v 0 1 9.5
v 1 1 9.5
v -2 1 7.5
v -1 1 7.5
v 0 1 7.5
v 1 1 7.5
v -2 1 5.5
v -1 1 5.5
v 0 1 5.5
v 1 1 5.5
v -1 1 4.5
v 0 1 4.5
v -3 1 3.5
v -2 1 3.5
v -1 1 3.5
v 0 1 3.5
v 1 1 3.5
v 2 1 3.5
v -3 1 2.5
v -2 1 2.5
v 1 1 2.5
v 2 1 2.5
v -2 1 -9.5
v -1 1 -9.5
v 0 1 -9.5
v 1 1 -9.5
v -1 1 -10.5
v 0 1 -10.5
v -1 2 9.5
v 0 2 9.5
v -1 2 7.5
v 0 2 7.5
v -1 2 4.5
v 0 2 4.5
v -2 2 3.5
v -1 2 3.5
v 0 2 3.5
v 1 2 3.5
v -2 2 2.5
v 1 2 2.5

# faces
f 3/2/1 2/2/1 1/2/1
f 4/2/1 2/2/1 3/2/1
f 11/2/1 6/2/1 5/2/1
f 12/2/1 6/2/1 11/2/1
f 13/2/1 8/2/1 7/2/1
f 14/2/1 8/2/1 13/2/1
f 15/1/1 10/1/1 9/1/1
f 16/1/1 10/1/1 15/1/1
f 17/2/1 15/2/1 14/2/1
f 18/2/1 15/2/1 17/2/1
f 24/2/1 20/2/1 19/2/1
f 25/2/1 20/2/1 24/2/1
f 28/1/1 22/1/1 21/1/1
f 29/1/1 22/1/1 28/1/1
f 30/2/1 24/2/1 23/2/1
f 31/2/1 24/2/1 30/2/1
f 32/2/1 27/2/1 26/2/1
f 33/2/1 27/2/1 32/2/1
f 34/2/2 35/2/2 39/2/2
f 39/2/2 35/2/2 40/2/2
f 36/1/2 37/1/2 43/1/2
f 43/1/2 37/1/2 44/1/2
f 38/2/2 39/2/2 45/2/2
f 45/2/2 39/2/2 46/2/2
f 41/2/2 42/2/2 47/2/2
f 47/2/2 42/2/2 48/2/2
f 49/2/2 50/2/2 55/2/2
f 55/2/2 50/2/2 56/2/2
f 51/2/2 52/2/2 57/2/2
f 57/2/2 52/2/2 58/2/2
f 53/1/2 54/1/2 59/1/2
f 59/1/2 54/1/2 60/1/2
f 58/2/2 59/2/2 61/2/2
f 61/2/2 59/2/2 62/2/2
f 63/2/2 64/2/2 65/2/2
f 65/2/2 64/2/2 66/2/2
f 69/2/3 68/2/3 67/2/3
f 71/2/3 69/2/3 67/2/3
f 71/2/3 70/2/3 69/2/3
f 72/2/3 70/2/3 71/2/3
f 73/2/3 71/2/3 67/2/3
f 74/2/3 71/2/3 73/2/3
f 77/2/3 76/2/3 75/2/3
f 78/2/3 76/2/3 77/2/3
f 81/2/3 80/2/3 79/2/3
f 82/2/3 80/2/3 81/2/3
f 85/2/3 84/2/3 83/2/3
f 86/2/3 84/2/3 85/2/3
f 89/2/3 88/2/3 87/2/3
f 90/2/3 88/2/3 89/2/3
f 92/2/3 91/2/3 90/2/3
f 93/2/3 91/2/3 92/2/3
f 97/2/3 95/2/3 94/2/3
f 98/2/3 95/2/3 97/2/3
f 99/2/3 97/2/3 96/2/3
f 100/2/3 97/2/3 99/2/3
f 101/2/4 102/2/4 103/2/4
f 103/2/4 102/2/4 104/2/4
f 104/2/4 105/2/4 107/2/4
f 107/2/4 105/2/4 108/2/4
f 106/2/4 107/2/4 109/2/4
f 109/2/4 107/2/4 110/2/4
f 111/2/4 112/2/4 113/2/4
f 113/2/4 112/2/4 114/2/4
f 114/2/4 115/2/4 117/2/4
f 117/2/4 115/2/4 118/2/4
f 116/2/4 117/2/4 119/2/4
f 119/2/4 117/2/4 120/2/4
f 121/1/4 122/1/4 123/1/4
f 123/1/4 122/1/4 124/1/4
f 125/1/4 126/1/4 127/1/4
f 127/1/4 126/1/4 128/1/4
f 129/1/4 130/1/4 131/1/4
f 131/1/4 130/1/4 132/1/4
f 135/2/5 134/2/5 133/2/5
f 136/2/5 134/2/5 135/2/5
f 137/2/5 134/2/5 136/2/5
f 138/2/5 134/2/5 137/2/5
f 140/2/5 137/2/5 136/2/5
f 141/2/5 137/2/5 140/2/5
f 144/2/5 140/2/5 139/2/5
f 144/2/5 142/2/5 141/2/5
f 144/2/5 141/2/5 140/2/5
f 145/2/5 142/2/5 144/2/5
f 147/2/5 145/2/5 144/2/5
f 147/2/5 146/2/5 145/2/5
f 147/2/5 144/2/5 143/2/5
f 148/2/5 146/2/5 147/2/5
f 149/2/5 146/2/5 148/2/5
f 150/2/5 146/2/5 149/2/5
f 151/1/5 149/1/5 148/1/5
f 152/1/5 149/1/5 151/1/5
f 153/1/5 149/1/5 152/1/5
f 154/1/5 149/1/5 153/1/5
f 155/1/5 153/1/5 152/1/5
f 156/1/5 153/1/5 155/1/5
f 157/2/6 158/2/6 161/2/6
f 161/2/6 158/2/6 162/2/6
f 159/2/6 160/2/6 163/2/6
f 163/2/6 160/2/6 164/2/6
f 162/2/6 163/2/6 166/2/6
f 166/2/6 163/2/6 167/2/6
f 165/2/6 166/2/6 169/2/6
f 167/2/6 168/2/6 169/2/6
f 166/2/6 167/2/6 169/2/6
f 169/2/6 168/2/6 170/2/6
f 165/2/6 169/2/6 172/2/6
f 172/2/6 169/2/6 173/2/6
f 170/2/6 168/2/6 174/2/6
f 174/2/6 168/2/6 175/2/6
f 171/2/6 172/2/6 177/2/6
f 177/2/6 172/2/6 178/2/6
f 175/2/6 176/2/6 179/2/6
f 179/2/6 176/2/6 180/2/6
f 178/1/6 179/1/6 181/1/6
f 181/1/6 179/1/6 182/1/6
f 182/1/6 179/1/6 183/1/6
f 183/1/6 179/1/6 184/1/6
f 182/1/6 183/1/6 185/1/6
f 185/1/6 183/1/6 186/1/6
f 187/2/6 188/2/6 189/2/6
f 189/2/6 188/2/6 190/2/6
f 191/2/6 192/2/6 194/2/6
f 194/2/6 192/2/6 195/2/6
f 194/2/6 195/2/6 197/2/6
f 195/2/6 196/2/6 197/2/6
f 193/2/6 194/2/6 197/2/6
f 197/2/6 196/2/6 198/2/6
